X Lossless Decoder version 20121222 (142.2)

XLD extraction logfile from 2013-01-21 13:48:46 +0900

FISHMANS / 宇宙 日本 世田谷

Used drive : MATSHITA DVD-R   UJ-8A8 (revision HB14)
Media type : Pressed CD

Ripper mode             : XLD Secure Ripper
Disable audio cache     : OK for the drive with a cache less than 1375KiB
Make use of C2 pointers : NO
Read offset correction  : 102
Max retry count         : 20
Gap status              : Analyzed, Appended (except HTOA)

TOC of the extracted CD
     Track |   Start  |  Length  | Start sector | End sector 
    ---------------------------------------------------------
        1  | 00:00:00 | 04:04:67 |         0    |    18366   
        2  | 04:04:67 | 08:42:10 |     18367    |    57526   
        3  | 12:47:02 | 05:13:70 |     57527    |    81071   
        4  | 18:00:72 | 05:36:50 |     81072    |   106321   
        5  | 23:37:47 | 04:58:48 |    106322    |   128719   
        6  | 28:36:20 | 08:26:57 |    128720    |   166726   
        7  | 37:03:02 | 12:56:33 |    166727    |   224959   
        8  | 49:59:35 | 08:37:32 |    224960    |   263766   

AccurateRip Summary
    Disc not found in AccurateRip DB.

All Tracks
    Album gain               : -6.57 dB
    Peak                     : 1.000000
    Statistics
        Read error                           : 0
        Jitter error (maybe fixed)           : 0
        Retry sector count                   : 0
        Damaged sector count                 : 0

Track 01
    Filename : /Volumes/G/FISHMANS - 宇宙 日本 世田谷 (1997) [FLAC]/01 Pokka Pokka.flac
    Pre-gap length : 00:02:00

    Track gain               : -5.86 dB
    Peak                     : 0.927765
    CRC32 hash (test run)    : 8D31ABBE
    CRC32 hash               : 8D31ABBE
    CRC32 hash (skip zero)   : B60C42C7
    AccurateRip v1 signature : 4354086F
    AccurateRip v2 signature : C4CB6410
        ->Track not present in AccurateRip database.
    Statistics
        Read error                           : 0
        Jitter error (maybe fixed)           : 0
        Retry sector count                   : 0
        Damaged sector count                 : 0

Track 02
    Filename : /Volumes/G/FISHMANS - 宇宙 日本 世田谷 (1997) [FLAC]/02 Weather Report.flac

    Track gain               : -7.47 dB
    Peak                     : 0.931915
    CRC32 hash (test run)    : EF949AC9
    CRC32 hash               : EF949AC9
    CRC32 hash (skip zero)   : 1BF54B6D
    AccurateRip v1 signature : 05E98A2B
    AccurateRip v2 signature : EE0094C9
        ->Track not present in AccurateRip database.
    Statistics
        Read error                           : 0
        Jitter error (maybe fixed)           : 0
        Retry sector count                   : 0
        Damaged sector count                 : 0

Track 03
    Filename : /Volumes/G/FISHMANS - 宇宙 日本 世田谷 (1997) [FLAC]/03 うしろ姿.flac
    Pre-gap length : 00:03:29

    Track gain               : -7.63 dB
    Peak                     : 0.916534
    CRC32 hash (test run)    : F6D7EF80
    CRC32 hash               : F6D7EF80
    CRC32 hash (skip zero)   : 052BA8F6
    AccurateRip v1 signature : FF4BDFCF
    AccurateRip v2 signature : 34872B5C
        ->Track not present in AccurateRip database.
    Statistics
        Read error                           : 0
        Jitter error (maybe fixed)           : 0
        Retry sector count                   : 0
        Damaged sector count                 : 0

Track 04
    Filename : /Volumes/G/FISHMANS - 宇宙 日本 世田谷 (1997) [FLAC]/04 In The Flight.flac
    Pre-gap length : 00:01:46

    Track gain               : -3.44 dB
    Peak                     : 0.944733
    CRC32 hash (test run)    : F50C5530
    CRC32 hash               : F50C5530
    CRC32 hash (skip zero)   : 6F4E7178
    AccurateRip v1 signature : 366D515A
    AccurateRip v2 signature : 2ED9EB97
        ->Track not present in AccurateRip database.
    Statistics
        Read error                           : 0
        Jitter error (maybe fixed)           : 0
        Retry sector count                   : 0
        Damaged sector count                 : 0

Track 05
    Filename : /Volumes/G/FISHMANS - 宇宙 日本 世田谷 (1997) [FLAC]/05 Magic Love.flac

    Track gain               : -4.19 dB
    Peak                     : 0.918427
    CRC32 hash (test run)    : 3E8AAB41
    CRC32 hash               : 3E8AAB41
    CRC32 hash (skip zero)   : CF160441
    AccurateRip v1 signature : A369956A
    AccurateRip v2 signature : FA9C8B2A
        ->Track not present in AccurateRip database.
    Statistics
        Read error                           : 0
        Jitter error (maybe fixed)           : 0
        Retry sector count                   : 0
        Damaged sector count                 : 0

Track 06
    Filename : /Volumes/G/FISHMANS - 宇宙 日本 世田谷 (1997) [FLAC]/06 バックビートにのっかって.flac
    Pre-gap length : 00:03:37

    Track gain               : -6.18 dB
    Peak                     : 0.948944
    CRC32 hash (test run)    : 03BF5CAC
    CRC32 hash               : 03BF5CAC
    CRC32 hash (skip zero)   : 71D2001F
    AccurateRip v1 signature : 8E68CC8A
    AccurateRip v2 signature : E9578561
        ->Track not present in AccurateRip database.
    Statistics
        Read error                           : 0
        Jitter error (maybe fixed)           : 0
        Retry sector count                   : 0
        Damaged sector count                 : 0

Track 07
    Filename : /Volumes/G/FISHMANS - 宇宙 日本 世田谷 (1997) [FLAC]/07 WALKING IN THE RHYTHM.flac

    Track gain               : -4.74 dB
    Peak                     : 1.000000
    CRC32 hash (test run)    : 7169A1E3
    CRC32 hash               : 7169A1E3
    CRC32 hash (skip zero)   : E63B1DAD
    AccurateRip v1 signature : 98EE2635
    AccurateRip v2 signature : 65A67BCE
        ->Track not present in AccurateRip database.
    Statistics
        Read error                           : 0
        Jitter error (maybe fixed)           : 0
        Retry sector count                   : 0
        Damaged sector count                 : 0

Track 08
    Filename : /Volumes/G/FISHMANS - 宇宙 日本 世田谷 (1997) [FLAC]/08 Daydream.flac
    Pre-gap length : 00:01:12

    Track gain               : -7.21 dB
    Peak                     : 0.984528
    CRC32 hash (test run)    : 7A83DC36
    CRC32 hash               : 7A83DC36
    CRC32 hash (skip zero)   : B4BF12AC
    AccurateRip v1 signature : 74CE8F1A
    AccurateRip v2 signature : B74A3DC3
        ->Track not present in AccurateRip database.
    Statistics
        Read error                           : 0
        Jitter error (maybe fixed)           : 0
        Retry sector count                   : 0
        Damaged sector count                 : 0

No errors occurred

End of status report
